<?xml version="1.0" encoding="utf-8"?>
<!-- Generator: Adobe Illustrator 17.0.0, SVG Export Plug-In . SVG Version: 6.00 Build 0)  -->
<!DOCTYPE svg PUBLIC "-//W3C//DTD SVG 1.1//EN" "http://www.w3.org/Graphics/SVG/1.1/DTD/svg11.dtd">
<svg version="1.1" id="Layer_1" xmlns="http://www.w3.org/2000/svg" xmlns:xlink="http://www.w3.org/1999/xlink" x="0px" y="0px"
	 width="245px" height="30px" viewBox="0 0 245 30" enable-background="new 0 0 245 30" xml:space="preserve">
<g>
</g>
<g>
	<g>
		<polygon fill="#20656C" points="14,1 2,8 2,22 14,29 		"/>
		<polygon fill="#EB743B" points="15,1 27,8 27,22 15,29 		"/>
	</g>
	<g>
		<path fill="#20656C" d="M50.303,18.231c-0.091,2.182-0.812,3.901-2.163,5.156c-1.351,1.256-3.136,1.884-5.352,1.884
			c-2.398,0-4.283-0.851-5.657-2.553c-1.374-1.702-2.062-4.103-2.062-7.202v-0.831c0-2.985,0.696-5.352,2.087-7.1
			c1.392-1.747,3.251-2.621,5.581-2.621c2.217,0,3.987,0.628,5.311,1.884c1.323,1.256,2.086,3.02,2.29,5.292h-4.818
			c0-2.148-0.927-3.223-2.782-3.223c-0.973,0-1.688,0.454-2.146,1.362c-0.458,0.909-0.693,2.317-0.704,4.225v1.073
			c0,2.101,0.223,3.583,0.67,4.446c0.446,0.862,1.191,1.294,2.231,1.294c0.916,0,1.595-0.246,2.036-0.737
			c0.441-0.492,0.667-1.275,0.679-2.35H50.303z"/>
		<path fill="#20656C" d="M52.261,16.01c0-2.56,0.604-4.567,1.811-6.023c1.206-1.457,2.877-2.186,5.01-2.186
			c2.153,0,3.834,0.728,5.041,2.186c1.207,1.456,1.811,3.475,1.811,6.055v1.077c0,2.57-0.599,4.578-1.795,6.024
			c-1.196,1.446-2.872,2.17-5.025,2.17c-2.164,0-3.848-0.727-5.049-2.178c-1.202-1.451-1.803-3.467-1.803-6.048V16.01z
			 M56.693,17.122c0,3.036,0.806,4.554,2.419,4.554c1.487,0,2.289-1.267,2.403-3.8l0.016-1.869c0-1.549-0.214-2.698-0.64-3.446
			c-0.427-0.749-1.03-1.123-1.811-1.123c-0.749,0-1.335,0.374-1.756,1.123c-0.422,0.748-0.632,1.898-0.632,3.446V17.122z"/>
		<path fill="#20656C" d="M73.986,18.757l2.138-10.643h4.604L76.093,25h-4.214l-4.65-16.887h4.619L73.986,18.757z"/>
		<path fill="#20656C" d="M89.421,25.313c-2.269,0-4.037-0.677-5.307-2.029c-1.27-1.352-1.903-3.288-1.903-5.806v-1.343
			c0-2.663,0.582-4.718,1.748-6.164c1.165-1.446,2.835-2.17,5.01-2.17c2.122,0,3.72,0.678,4.791,2.034
			c1.071,1.355,1.618,3.363,1.639,6.022v2.166h-8.787c0.063,1.265,0.339,2.191,0.827,2.774c0.489,0.585,1.244,0.878,2.264,0.878
			c1.478,0,2.71-0.516,3.699-1.545l1.731,2.669c-0.541,0.749-1.326,1.354-2.356,1.817C91.746,25.08,90.628,25.313,89.421,25.313z
			 M86.643,14.949h4.417v-0.41c-0.021-1.018-0.188-1.789-0.499-2.314c-0.313-0.524-0.854-0.787-1.623-0.787
			c-0.771,0-1.329,0.278-1.678,0.835C86.911,12.828,86.705,13.721,86.643,14.949z"/>
		<path fill="#20656C" d="M106.229,12.374l-1.467-0.125c-1.207,0-2.023,0.53-2.45,1.592V25H97.88V8.113h4.167l0.125,1.826
			c0.697-1.426,1.659-2.139,2.888-2.139c0.499,0,0.905,0.068,1.217,0.203L106.229,12.374z"/>
		<path fill="#20656C" d="M119.559,20.349h-6.258L112.083,25h-4.854l7.101-22.724h4.198L125.677,25h-4.9L119.559,20.349z
			 M114.299,16.525h4.245l-2.122-8.101L114.299,16.525z"/>
		<path fill="#20656C" d="M135.915,12.374l-1.467-0.125c-1.207,0-2.023,0.53-2.45,1.592V25h-4.433V8.113h4.167l0.125,1.826
			c0.697-1.426,1.659-2.139,2.888-2.139c0.499,0,0.905,0.068,1.217,0.203L135.915,12.374z"/>
		<path fill="#20656C" d="M144.093,3.962v4.151h2.263v3.309h-2.263v8.393c0,0.667,0.091,1.126,0.273,1.376
			c0.182,0.25,0.533,0.375,1.054,0.375c0.426,0,0.774-0.036,1.045-0.109l-0.031,3.434c-0.749,0.281-1.561,0.422-2.435,0.422
			c-2.851,0-4.292-1.636-4.323-4.906v-8.984h-1.95V8.113h1.95V3.962H144.093z"/>
		<path fill="#EB743B" d="M159.111,21.251h-5.836L152.206,25h-4.801l6.531-19.764h4.496L165.031,25h-4.817L159.111,21.251z
			 M154.327,17.638h3.715l-1.883-6.379L154.327,17.638z"/>
		<path fill="#EB743B" d="M175.227,12.374l-1.467-0.125c-1.207,0-2.023,0.53-2.45,1.592V25h-4.433V8.113h4.167l0.125,1.826
			c0.697-1.426,1.659-2.139,2.888-2.139c0.499,0,0.905,0.068,1.217,0.203L175.227,12.374z"/>
		<path fill="#EB743B" d="M183.296,21.676c1.28,0,1.93-0.843,1.951-2.528h4.151c-0.021,1.842-0.588,3.329-1.701,4.464
			c-1.113,1.134-2.55,1.701-4.308,1.701c-2.175,0-3.834-0.677-4.979-2.029c-1.145-1.352-1.728-3.345-1.748-5.977v-1.342
			c0-2.653,0.564-4.677,1.693-6.071c1.129-1.395,2.796-2.092,5.002-2.092c1.862,0,3.329,0.575,4.401,1.725
			c1.071,1.149,1.617,2.781,1.639,4.893h-4.151c-0.011-0.957-0.167-1.692-0.469-2.208c-0.302-0.515-0.801-0.773-1.498-0.773
			c-0.771,0-1.321,0.274-1.654,0.824c-0.333,0.55-0.51,1.615-0.53,3.195v1.728c0,1.382,0.067,2.348,0.202,2.897
			c0.136,0.55,0.359,0.952,0.672,1.209C182.281,21.548,182.724,21.676,183.296,21.676z"/>
		<path fill="#EB743B" d="M196.203,9.596c0.957-1.196,2.133-1.795,3.527-1.795c1.54,0,2.71,0.541,3.512,1.623
			c0.801,1.082,1.207,2.695,1.217,4.839V25h-4.432V14.309c0-0.988-0.154-1.703-0.461-2.146c-0.307-0.442-0.804-0.663-1.49-0.663
			c-0.802,0-1.426,0.369-1.873,1.107V25h-4.417V3h4.417V9.596z"/>
		<path fill="#EB743B" d="M207.628,3.743c0-0.687,0.219-1.249,0.655-1.686c0.438-0.438,1.02-0.655,1.748-0.655
			c0.729,0,1.312,0.218,1.748,0.655c0.438,0.437,0.656,0.999,0.656,1.686c0,0.677-0.217,1.238-0.648,1.685
			c-0.432,0.447-1.017,0.671-1.756,0.671c-0.738,0-1.324-0.224-1.756-0.671C207.844,4.981,207.628,4.42,207.628,3.743z M212.264,25
			h-4.433V8.113h4.433V25z"/>
		<path fill="#EB743B" d="M221.223,18.757l2.138-10.643h4.604L223.329,25h-4.214l-4.65-16.887h4.619L221.223,18.757z"/>
		<path fill="#EB743B" d="M236.657,25.313c-2.268,0-4.037-0.677-5.307-2.029c-1.27-1.352-1.903-3.288-1.903-5.806v-1.343
			c0-2.663,0.582-4.718,1.748-6.164c1.165-1.446,2.835-2.17,5.01-2.17c2.122,0,3.72,0.678,4.791,2.034
			c1.071,1.355,1.618,3.363,1.639,6.022v2.166h-8.787c0.063,1.265,0.339,2.191,0.827,2.774c0.489,0.585,1.244,0.878,2.264,0.878
			c1.477,0,2.71-0.516,3.699-1.545l1.731,2.669c-0.541,0.749-1.326,1.354-2.356,1.817C238.982,25.08,237.864,25.313,236.657,25.313z
			 M233.879,14.949h4.417v-0.41c-0.02-1.018-0.188-1.789-0.499-2.314c-0.313-0.524-0.854-0.787-1.623-0.787
			c-0.77,0-1.329,0.278-1.678,0.835C234.148,12.828,233.941,13.721,233.879,14.949z"/>
	</g>
</g>
</svg>
